# AST/ASF file generated using VICON BodyLanguage
# -----------------------------------------------
:version 1.10
:name VICON
:units
  mass 1.0
  length 0.45
  angle deg
:documentation
   .ast/.asf automatically generated from VICON data using
   VICON BodyBuilder and BodyLanguage model FoxedUp or BRILLIANT.MOD
:root
   order TX TY TZ RX RY RZ
   axis XYZ
   position 0 0 0  
   orientation 0 0 0 
:bonedata
  begin
     id 1 
     name lhipjoint
     direction 0.577973 -0.728611 0.367523 
     length 2.48544 
     axis 0 0 0  XYZ
  end
  begin
     id 2 
     name lfemur
     direction 0.34202 -0.939693 0  
     length 7.1921  
     axis 0 0 20  XYZ
    dof rx ry rz
    limits (-160.0 20.0)
           (-70.0 70.0)
           (-60.0 70.0)
  end
  begin
     id 3 
     name ltibia
     direction 0.34202 -0.939693 0   
     length 7.71059   
     axis 0 0 20   XYZ
    dof rx
    limits (-10.0 170.0)
  end
  begin
     id 4 
     name lfoot
     direction 0.089538 -0.246004 0.965124   
     length 2.19909   
     axis -90 7.62852e-016 20   XYZ
    dof rx rz
    limits (-45.0 90.0)
           (-70.0 20.0)
  end
  begin
     id 5 
     name ltoes
     direction 1.53544e-011 -4.21829e-011 1   
     length 1.10116   
     axis -90 7.62852e-016 20   XYZ
    dof rx
    limits (-90.0 20.0)
  end
  begin
     id 6 
     name rhipjoint
     direction -0.554414 -0.743062 0.374812   
     length 2.4371  
     axis 0 0 0  XYZ 
  end
  begin
     id 7 
     name rfemur
     direction -0.34202 -0.939693 0   
     length 7.47254   
     axis 0 0 -20   XYZ
    dof rx ry rz
    limits (-160.0 20.0)
           (-70.0 70.0)
           (-70.0 60.0)
  end
  begin
     id 8 
     name rtibia
     direction -0.34202 -0.939693 0   
     length 7.65855   
     axis 0 0 -20   XYZ
    dof rx
    limits (-10.0 170.0)
 end
 begin
     id 9 
     name rfoot
     direction -0.133779 -0.367555 0.92033   
     length 2.43006  
     axis -90 -7.62852e-016 -20   XYZ
    dof rx rz
    limits (-45.0 90.0)
           (-20.0 70.0)
  end
  begin
     id 10 
     name rtoes
     direction -1.53563e-011 -4.21889e-011 1   
     length 1.19625   
     axis -90 -7.62852e-016 -20   XYZ
    dof rx
    limits (-90.0 20.0)
  end
  begin
     id 11 
     name lowerback
     direction 0.0249066 0.998043 -0.0573585   
     length 2.08485   
     axis 0 0 0   XYZ
    dof rx ry rz
    limits (-20.0 45.0)
           (-30.0 30.0)
           (-30.0 30.0)
  end
  begin
     id 12 
     name upperback
     direction 0.0237884 0.999673 0.00943178   
     length 2.08515   
     axis 0 0 0   XYZ
    dof rx ry rz
    limits (-20.0 45.0)
           (-30.0 30.0)
           (-30.0 30.0)
  end
  begin
     id 13 
     name thorax
     direction 0.0106671 0.999301 0.0358174   
     length 2.09037   
     axis 0 0 0   XYZ
    dof rx ry rz
    limits (-20.0 45.0)
           (-30.0 30.0)
           (-30.0 30.0)
  end
  begin
     id 14 
     name lowerneck
     direction -0.0580016 0.987052 0.149546   
     length 1.84454   
     axis 0 0 0   XYZ
    dof rx ry rz
    limits (-20.0 45.0)
           (-30.0 30.0)
           (-30.0 30.0)
  end
  begin
     id 15 
     name upperneck
     direction 0.079456 0.981963 -0.171567   
     length 1.88141   
     axis 0 0 0   XYZ
    dof rx ry rz
    limits (-20.0 45.0)
           (-30.0 30.0)
           (-30.0 30.0)
  end
  begin
     id 16
     name head
     direction 0.0262167 0.9967 -0.0768276  
     length 1.89541  
     axis 0 0 0   XYZ
    dof rx ry rz
    limits (-20.0 45.0)
           (-30.0 30.0)
           (-30.0 30.0)
  end
  begin
     id 17 
     name lclavicle
     direction 0.946135 0.322134 -0.0325326  
     length 3.949  
     axis 0 0 0   XYZ
    dof ry rz
    limits (-20.0 10.0)
           (0.0 20.0)
  end
  begin
     id 18 
     name lhumerus
     direction 1 -4.48964e-011 1.94005e-028   
     length 5.10995   
     axis 180 -30 -90   XYZ
    dof rx ry rz
    limits (-60.0 90.0)
           (-90.0 90.0)
           (-90.0 90.0)
  end
  begin
     id 19
     name lradius
     direction 1 -4.48976e-011 2.87852e-027   
     length 3.21207   
     axis 180 -30 -90   XYZ
    dof rx
    limits (-10.0 170.0)
  end
  begin
     id 20
     name lwrist
     direction 1 -4.48963e-011 1.9975e-027   
     length 1.60604   
     axis 2.96054e-016 90 90   XYZ
    dof ry
    limits (-180.0 0.0)
 end
  begin
     id 21 
     name lhand
     direction 1 -4.48919e-011 4.00227e-027   
     length 0.63349   
     axis -2.5488e-015 90 90   XYZ
    dof rx rz
    limits (-90.0 90.0)
           (-45.0 45.0)
  end
  begin
     id 22 
     name lfingers
     direction 1 -4.49037e-011 7.9652e-027   
     length 0.510736   
     axis -5.0975e-015 90 90   XYZ
    dof rx
    limits (0.0 90.0)
  end
  begin
     id 23
     name lthumb
     direction 0.707107 -6.34922e-011 0.707107   
     length 0.733318   
     axis -90 45 -4.48553e-014   XYZ
    dof rx rz
    limits (-45.0 45.0)
           (-45.0 45.0)
  end
  begin
     id 24 
     name rclavicle
     direction -0.940085 0.328911 -0.0897654   
     length 3.93848  
     axis 0 0 0   XYZ 
    dof ry rz
    limits (-10.0 20.0)
           (-20.0 0.0)
  end
  begin
     id 25 
     name rhumerus
     direction -1 -4.48958e-011 3.02044e-027  
     length 5.25109   
     axis 180 30 90   XYZ
    dof rx ry rz
    limits (-90.0 60.0)
           (-90.0 90.0)
           (-90.0 90.0)
  end
  begin
     id 26 
     name rradius
     direction -1 -4.4897e-011 9.78352e-028   
     length 3.28364   
     axis 180 30 90   XYZ
    dof rx
    limits (-10.0 170.0)
  end
  begin
     id 27 
     name rwrist
     direction -1 -4.48943e-011 1.99918e-027   
     length 1.64182   
     axis 2.96054e-016 -90 -90   XYZ
    dof ry
    limits (-180.0 0.0)
  end
  begin
     id 28
     name rhand
     direction -1 -4.49024e-011 3.98478e-027   
     length 0.599745   
     axis -2.5488e-015 -90 -90   XYZ
    dof rx rz
    limits (-90.0 90.0)
           (-45.0 45.0)
  end
  begin
     id 29
     name rfingers
     direction -1 -4.48914e-011 8.00621e-027   
     length 0.48353   
     axis -5.0975e-015 -90 -90   XYZ
    dof rx
    limits (0.0 90.0)
  end
  begin
     id 30
     name rthumb
     direction -0.707107 -6.34992e-011 0.707107   
     length 0.694255   
     axis -90 -45 4.48553e-014   XYZ
    dof rx rz
    limits (-45.0 45.0)
           (-45.0 45.0)
  end
:hierarchy
  begin
    root lhipjoint rhipjoint lowerback
    lhipjoint lfemur
    lfemur ltibia
    ltibia lfoot
    lfoot ltoes
    rhipjoint rfemur
    rfemur rtibia
    rtibia rfoot
    rfoot rtoes
    lowerback upperback
    upperback thorax
    thorax lowerneck lclavicle rclavicle
    lowerneck upperneck
    upperneck head
    lclavicle lhumerus
    lhumerus lradius
    lradius lwrist
    lwrist lhand lthumb
    lhand lfingers
    rclavicle rhumerus
    rhumerus rradius
    rradius rwrist
    rwrist rhand rthumb
    rhand rfingers
  end

#!OML:ASF E:\CV Data\Top Level 1\Subject 1\Session 1\player.ASF
:FULLY-SPECIFIED
:DEGREES
1
root 4.5076 17.7789 -26.8799 7.77291 -2.09501 -6.5678
lowerback 0.979219 0.381614 3.26867
upperback -1.53007 0.633445 3.12059
thorax -2.12174 0.290343 1.35568
lowerneck -7.0766 -18.4087 -20.2162
upperneck 11.9649 -25.9126 18.5375
head 10.0969 -12.1214 5.55307
rclavicle 4.50993e-015 -4.57205e-015
rhumerus -29.3018 -22.2571 -77.1858
rradius 98.7523
rwrist -87.6773
rhand -17.8936 -2.91869
rfingers 7.12502
rthumb 8.37302 -32.7327
lclavicle 4.50993e-015 -4.57205e-015
lhumerus -38.1476 15.8628 77.3334
lradius 31.8316
lwrist -3.76097
lhand -9.42077 11.8775
lfingers 7.12502
lthumb 16.5414 41.1924
rfemur -12.4648 -0.710295 25.3276
rtibia 25.8325
rfoot -17.2538 -19.7872
rtoes 1.21572
lfemur -16.4778 3.66425 -13.0968
ltibia 27.627
lfoot -9.60327 16.3778
ltoes -1.67561
2
root 4.50793 17.7794 -26.8815 7.80839 -2.03476 -6.55855
lowerback 0.960085 0.37887 3.21551
upperback -1.49374 0.626165 3.12787
thorax -2.07413 0.288221 1.39319
lowerneck -7.09359 -18.515 -19.3181
upperneck 11.7792 -25.8391 17.2628
head 9.68119 -12.142 5.05708
rclavicle -2.38542e-015 -3.00165e-014
rhumerus -28.8845 -22.7012 -76.9411
rradius 98.6339
rwrist -87.1607
rhand -17.7551 -2.53043
rfingers 7.12502
rthumb 8.50672 -32.3391
lclavicle -2.38542e-015 -3.00165e-014
lhumerus -37.9885 15.9524 77.2351
lradius 31.901
lwrist -3.59846
lhand -9.67847 12.1242
lfingers 7.12502
lthumb 16.2933 41.4597
rfemur -12.5473 -0.633566 25.3331
rtibia 25.901
rfoot -17.3011 -19.9273
rtoes 1.36011
lfemur -16.5126 3.61701 -13.0999
ltibia 27.5987
lfoot -9.62765 16.3599
ltoes -1.54308
3
root 4.51596 17.7795 -26.881 7.85451 -2.31612 -6.49617
lowerback 0.995123 0.485841 3.13987
upperback -1.51011 0.76965 3.10472
thorax -2.11136 0.360504 1.40743
lowerneck -7.01491 -18.6077 -18.4783
upperneck 11.5734 -25.7667 15.9954
head 9.26218 -12.1732 4.59367
rclavicle 9.44227e-016 -2.72335e-014
rhumerus -28.6919 -23.0877 -76.5667
rradius 98.9352
rwrist -86.5095
rhand -18.3671 -3.19222
rfingers 7.12502
rthumb 7.91604 -33.024
lclavicle 9.44227e-016 -2.72335e-014
lhumerus -37.9644 16.0057 77.1382
lradius 31.9995
lwrist -3.42876
lhand -9.8003 11.9813
lfingers 7.12502
lthumb 16.176 41.3263
rfemur -12.6375 -0.502521 25.1975
rtibia 25.9269
rfoot -17.1796 -19.8613
rtoes 1.08464
lfemur -16.519 3.73656 -13.2457
ltibia 27.6035
lfoot -9.62514 16.585
ltoes -1.86136
4
root 4.51893 17.7798 -26.8797 7.80947 -2.07671 -6.50608
lowerback 1.03264 0.413954 3.16525
upperback -1.49533 0.676089 3.1276
thorax -2.11714 0.313588 1.41917
lowerneck -6.85527 -18.6741 -17.7719
upperneck 11.2841 -25.6926 14.9191
head 8.85849 -12.203 4.22559
rclavicle 1.2424e-016 2.36554e-014
rhumerus -28.5067 -23.3722 -76.241
rradius 99.2956
rwrist -86.3078
rhand -19.0394 -3.60347
rfingers 7.12502
rthumb 7.26714 -33.4587
lclavicle 1.2424e-016 2.36554e-014
lhumerus -37.9326 15.9774 77.0918
lradius 32.1515
lwrist -3.25071
lhand -9.93933 12.0771
lfingers 7.12502
lthumb 16.0421 41.4329
rfemur -12.579 -0.599069 25.2375
rtibia 25.9568
rfoot -17.2884 -19.9823
rtoes 1.32322
lfemur -16.5236 3.60722 -13.2117
ltibia 27.6051
lfoot -9.62218 16.4571
ltoes -1.83947
5
root 4.52168 17.7803 -26.8813 7.82857 -1.98974 -6.4844
lowerback 1.0717 0.397773 3.12922
upperback -1.5047 0.656538 3.13682
thorax -2.14921 0.304194 1.44912
lowerneck -6.67018 -18.7049 -17.3666
upperneck 11.0126 -25.6483 14.3274
head 8.58293 -12.2251 4.03864
rclavicle 1.23495e-014 -2.94201e-014
rhumerus -28.2798 -23.7482 -75.9178
rradius 99.591
rwrist -85.9811
rhand -19.5876 -4.09936
rfingers 7.12502
rthumb 6.73795 -33.9722
lclavicle 1.23495e-014 -2.94201e-014
lhumerus -37.8903 15.9653 77.0363
lradius 32.2839
lwrist -3.0768
lhand -10.0754 12.0854
lfingers 7.12502
lthumb 15.911 41.4517
rfemur -12.6095 -0.598468 25.2213
rtibia 25.9877
rfoot -17.3398 -20.0614
rtoes 1.5045
lfemur -16.5898 3.58749 -13.239
ltibia 27.6208
lfoot -9.61438 16.402
ltoes -1.92856
6
root 4.52379 17.7811 -26.8842 7.86106 -1.87445 -6.45793
lowerback 1.12366 0.373834 3.087
upperback -1.52777 0.627814 3.14682
thorax -2.20267 0.290123 1.48358
lowerneck -6.13188 -18.6444 -17.3849
upperneck 10.3199 -25.5861 14.5477
head 8.28729 -12.2299 4.18857
rclavicle 4.39811e-015 2.52457e-014
rhumerus -28.0684 -24.1389 -75.5913
rradius 99.9472
rwrist -85.7248
rhand -20.1932 -4.73226
rfingers 7.12502
rthumb 6.1533 -34.6229
lclavicle 4.39811e-015 2.52457e-014
lhumerus -37.8552 15.9259 76.9951
lradius 32.4251
lwrist -2.90718
lhand -10.1863 12.0637
lfingers 7.12502
lthumb 15.8043 41.4385
rfemur -12.6529 -0.611457 25.2067
rtibia 26.0124
rfoot -17.3934 -20.148
rtoes 1.71519
lfemur -16.6828 3.58792 -13.2676
ltibia 27.6317
lfoot -9.59505 16.2962
ltoes -2.0252
7
root 4.525 17.782 -26.8885 7.90905 -1.7322 -6.42488
lowerback 1.17892 0.342646 3.0362
upperback -1.55666 0.589609 3.15633
thorax -2.26397 0.271414 1.52268
lowerneck -5.35185 -18.5078 -17.7322
upperneck 9.32803 -25.4965 15.3959
head 7.98914 -12.2161 4.59525
rclavicle -7.00716e-015 1.94809e-014
rhumerus -27.8565 -24.5467 -75.2722
rradius 100.349
rwrist -85.5261
rhand -20.8017 -5.41722
rfingers 7.12502
rthumb 5.56583 -35.3241
lclavicle -7.00716e-015 1.94809e-014
lhumerus -37.811 15.8625 76.9705
lradius 32.5731
lwrist -2.7428
lhand -10.2851 12.04
lfingers 7.12502
lthumb 15.7091 41.4224
rfemur -12.728 -0.633141 25.1925
rtibia 26.0582
rfoot -17.4572 -20.2489
rtoes 1.9414
lfemur -16.8024 3.59614 -13.2985
ltibia 27.6404
lfoot -9.57088 16.1514
ltoes -2.11281
8
root 4.52615 17.7831 -26.8934 7.96964 -1.60492 -6.38293
lowerback 1.2317 0.319056 2.98158
upperback -1.58517 0.561095 3.15926
thorax -2.32342 0.257613 1.55693
lowerneck -4.36592 -18.2931 -18.3567
upperneck 8.06533 -25.3592 16.7866
head 7.68249 -12.1822 5.22821
rclavicle -8.74653e-015 1.25234e-014
rhumerus -27.6443 -24.9828 -74.9597
rradius 100.805
rwrist -85.356
rhand -21.4114 -6.1647
rfingers 7.12502
rthumb 4.97711 -36.0862
lclavicle -8.74653e-015 1.25234e-014
lhumerus -37.7539 15.7748 76.9612
lradius 32.7291
lwrist -2.58884
lhand -10.3693 12.0297
lfingers 7.12502
lthumb 15.628 41.4185
rfemur -12.8294 -0.655099 25.1666
rtibia 26.113
rfoot -17.5011 -20.3468
rtoes 2.09433
lfemur -16.9282 3.61986 -13.3423
ltibia 27.6403
lfoot -9.54408 16.0052
ltoes -2.20291
9
root 4.52794 17.7841 -26.8976 8.029 -1.50429 -6.33518
lowerback 1.27702 0.305408 2.93424
upperback -1.60273 0.544905 3.15513
thorax -2.36727 0.249961 1.57953
lowerneck -3.34013 -18.0434 -19.0295
upperneck 6.71452 -25.1749 18.2901
head 7.36073 -12.1366 5.91711
rclavicle -7.60351e-015 1.88845e-014
rhumerus -27.4398 -25.4279 -74.652
rradius 101.323
rwrist -85.2039
rhand -22.0209 -6.91834
rfingers 7.12502
rthumb 4.38857 -36.8529
lclavicle -7.60351e-015 1.88845e-014
lhumerus -37.6779 15.6762 76.9643
lradius 32.8868
lwrist -2.44838
lhand -10.4355 12.029
lfingers 7.12502
lthumb 15.5642 41.4227
rfemur -12.9324 -0.678849 25.1266
rtibia 26.1717
rfoot -17.5394 -20.4198
rtoes 2.21695
lfemur -17.0346 3.64197 -13.3977
ltibia 27.6288
lfoot -9.51874 15.8815
ltoes -2.27561
10
root 4.53046 17.785 -26.9002 8.07774 -1.43196 -6.28494
lowerback 1.30938 0.302714 2.89713
upperback -1.60338 0.541956 3.14473
thorax -2.38631 0.248926 1.58953
lowerneck -2.46625 -17.8144 -19.6084
upperneck 5.53843 -24.9875 19.5915
head 7.08063 -12.0921 6.52025
rclavicle -1.09083e-014 -1.96797e-014
rhumerus -27.2406 -25.8843 -74.352
rradius 101.896
rwrist -85.0442
rhand -22.6244 -7.66326
rfingers 7.12502
rthumb 3.80584 -37.609
lclavicle -1.09083e-014 -1.96797e-014
lhumerus -37.5853 15.5629 76.9819
lradius 33.0523
lwrist -2.31854
lhand -10.4921 12.0595
lfingers 7.12502
lthumb 15.5098 41.4575
rfemur -13.0218 -0.704153 25.0757
rtibia 26.2277
rfoot -17.5674 -20.472
rtoes 2.27964
lfemur -17.1068 3.65248 -13.4601
ltibia 27.6065
lfoot -9.50008 15.7933
ltoes -2.32315
